<svg width="1103" height="70" viewBox="0 0 1103 70" fill="none" xmlns="http://www.w3.org/2000/svg">
<path d="M117.966 52.0248V58.6727C116.133 58.8879 114.288 58.9972 112.442 59C104.906 59 102.81 57.307 102.81 52.3634V44.2144H99V39.2032H102.81V34H111.908V39.2257H118V44.2144H111.908V50.6027C111.908 51.833 112.684 52.132 114.566 52.132C115.617 52.1546 116.966 52.1151 117.966 52.0248Z" fill="white"/>
<path d="M140.919 56.0039H140.702C138.3 57.9542 135.229 59 131 59C125.018 59 121 56.6653 121 51.4081V39H130.223V48.4234C130.223 51.0972 131.981 52.1939 135.012 52.1939C137.746 52.1939 140.754 51.1594 140.754 47.4059V39H150V58.4799H140.919V56.0039Z" fill="white"/>
<path d="M170.961 52.0248V58.6727C169.13 58.888 167.288 58.9973 165.444 59C157.91 59 155.815 57.307 155.815 52.3634V44.2144H152V39.2032H155.815V34H164.91V39.2257H171V44.2144H164.91V50.6027C164.91 51.833 165.685 52.132 167.567 52.132C168.601 52.1546 169.966 52.1151 170.961 52.0248Z" fill="white"/>
<path d="M203 49.0059C203 55.969 198.578 60 187.497 60C176.416 60 172 55.969 172 49.0059C172 42.0427 176.422 38 187.497 38C198.572 38 203 42.031 203 49.0059ZM193.422 49.0059C193.422 46.0678 191.777 44.2345 187.497 44.2345C183.217 44.2345 181.578 46.0561 181.578 49.0059C181.578 51.9557 183.223 53.7655 187.497 53.7655C191.771 53.7655 193.422 51.9439 193.422 49.0059Z" fill="white"/>
<path d="M214.407 39.5201V42.2561H214.632C217.148 40.0345 220.339 39 225.448 39C226.301 39.0026 227.153 39.0517 228 39.147V47.5359C226.575 47.2832 225.128 47.1583 223.678 47.1628C219.38 47.1628 214.573 47.9825 214.573 53.251V59H205V39.5201H214.407Z" fill="white"/>
<path d="M45.605 41.1013C45.605 41.5826 45.605 42.2205 45.3654 42.282C44.8083 42.4331 43.9336 38.7624 41.5157 36.0932C39.8545 34.343 37.7272 33.1096 35.3875 32.54C34.9585 33.2898 30.5851 41.2356 34.5016 49.215C35.0866 50.4013 38.6132 57.2168 45.7331 57.9387C51.1873 58.4982 56.1289 55.1408 58.6359 51.4701C64.4689 42.892 58.8699 27.8061 48.814 20.431C38.758 13.0559 26.7299 15.1487 24 15.6859C29.2314 15.9562 34.2233 17.9728 38.1842 21.4158C41.7622 24.6485 44.2113 28.9504 45.1704 33.6871C45.7075 36.1195 45.8542 38.6225 45.605 41.1013Z" fill="#0ABAB5"/>
<path d="M6.28233 26.9087C3.47951 30.997 2.7674 34.8491 1.8787 39.6244C0.821362 45.3639 0.717525 51.2291 1.57108 57H17.1461C16.9498 53.4931 17.2101 49.9762 17.9209 46.5318C19.2938 39.8827 20.4047 34.1842 25.2527 31.6949C29.7645 29.376 35.5069 30.8487 39.1301 33.1621C42.4298 35.3415 44.7759 38.6224 45.7156 42.372C46.5799 36.9304 45.4604 31.3682 42.5482 26.6339C41.5683 25.0843 35.9285 16.5943 25.7654 16.0283C14.8389 15.4293 7.92301 24.5128 6.28233 26.9087Z" fill="#0ABAB5"/>
<path d="M76.1052 57.8707L91.9934 58C92.069 54.4112 91.4924 50.8381 90.2911 47.4514C89.3038 44.6415 86.8071 37.6109 79.5098 33.2611C71.3614 28.3999 62.8839 30.2826 61 30.749C63.8939 30.8727 70.5613 31.5358 73.4269 36.1498C74.4199 37.7514 74.5958 39.252 74.9476 43.1185C75.2994 46.985 75.725 52.026 76.1052 57.8707Z" fill="#0ABAB5"/>
<path d="M17 14.2293V16.2704C16.7068 16.4182 16.3974 16.549 16.1151 16.7195C8.82954 21.5066 4.10098 29.2274 2 38V14.2293H6.14223V2.49463C6.14223 2.36344 6.192 2.23762 6.28057 2.14486C6.36915 2.0521 6.48929 2 6.61456 2C6.73825 2.00124 6.85677 2.05211 6.94571 2.14214C7.03546 2.23544 7.08622 2.3622 7.08687 2.49463V14.2293H8.15093V9.15224C8.15093 9.02105 8.20069 8.89525 8.28927 8.80249C8.37784 8.70972 8.49797 8.65761 8.62324 8.65761C8.68512 8.65743 8.74641 8.67044 8.80334 8.69585C8.86028 8.72126 8.91167 8.75855 8.95441 8.80544C8.99892 8.85039 9.03435 8.90425 9.0586 8.96383C9.08285 9.02341 9.09541 9.08747 9.09555 9.15224V14.2122H10.5233V10.9943C10.5233 10.8827 10.5657 10.7757 10.641 10.6968C10.7163 10.6179 10.8185 10.5736 10.9251 10.5736C10.9777 10.5738 11.0298 10.5849 11.0782 10.6064C11.1267 10.6279 11.1706 10.6592 11.2074 10.6987C11.2455 10.7368 11.2758 10.7827 11.2964 10.8335C11.3169 10.8844 11.3273 10.9391 11.3268 10.9943V14.2122L17 14.2293Z" fill="#0ABAB5"/>
<path d="M48 18.06C50.7109 16.8528 53.5728 16.006 56.5104 15.5418C59.5748 15.0638 69.2986 13.5296 78.4523 19.3607C87.5158 25.1419 90.4955 34.6252 91.2856 39.1334C91.6896 41.8962 91.9196 44.6809 91.9741 47.4716C92.0673 50.9877 91.9089 54.5059 91.5001 58C91.3872 56.0099 90.5858 45.8762 81.8553 38.1551C72.4194 29.8169 61.0534 30.773 59.2362 30.9564C55.4964 26.665 51.751 22.3662 48 18.06Z" fill="#0ABAB5"/>
<path d="M93 41.7594C92.6588 26.4898 78.8531 12.9848 63.4893 12.849C58.133 12.849 55.4208 13.2336 51.395 14.6588C49.7941 15.2203 48.283 16.0088 46.9087 17.0001C38.2887 12.3514 28.1447 11.4578 19.0811 15.1677V13.8727C19.0811 13.4227 18.9014 12.9912 18.5815 12.673C18.2616 12.3548 17.8277 12.176 17.3753 12.176H13.1278V10.683C13.1263 10.1195 12.9006 9.57952 12.5 9.18106C12.0994 8.7826 11.5564 8.55809 10.9899 8.5566H10.7738C10.7067 8.05199 10.4663 7.58597 10.0932 7.23757C9.72013 6.88918 9.23735 6.67984 8.72679 6.64508V2.19995C8.72679 1.61649 8.49376 1.05693 8.07895 0.64436C7.66415 0.23179 7.10155 0 6.51492 0C5.92829 0 5.3657 0.23179 4.95089 0.64436C4.53608 1.05693 4.30303 1.61649 4.30303 2.19995V12.1647H1.67039C1.4455 12.1642 1.22271 12.2079 1.01486 12.2933C0.807002 12.3787 0.618189 12.5041 0.459264 12.6624L0.317112 12.8151L0.248874 12.9169C0.23176 12.9382 0.216538 12.9609 0.203384 12.9848L0.135154 13.1092C0.107104 13.1642 0.0824163 13.2209 0.0612324 13.2788V13.3241C0.0612324 13.3919 0.0214351 13.4598 0.00437689 13.5277V13.6125C-0.00145896 13.6991 -0.00145896 13.786 0.00437689 13.8727V57.159C0.00437689 57.6089 0.184095 58.0405 0.503999 58.3587C0.823902 58.6768 1.25779 58.8556 1.7102 58.8556H17.4037C17.8561 58.8556 18.29 58.6768 18.6099 58.3587C18.9298 58.0405 19.1096 57.6089 19.1096 57.159V43.0205C20.0591 35.4932 25.9328 30.5165 33.5806 31.8794C32.0567 36.1775 30.6921 40.6905 31.3403 44.9773C34.3653 63.5326 58.8552 63.8154 61.9882 44.9773C62.6307 40.8432 61.6641 35.9287 59.8843 31.8568C66.8213 30.7653 73.2921 34.9616 74.2758 41.9234V57.1929C74.2758 57.6429 74.4555 58.0744 74.7754 58.3926C75.0953 58.7108 75.5292 58.8895 75.9816 58.8895H91.2942C91.7466 58.8895 92.1805 58.7108 92.5004 58.3926C92.8203 58.0744 93 57.6429 93 57.1929C92.9943 57.125 93 41.7933 93 41.7594ZM1.67039 13.8727H6.00885V2.19995C6.00885 2.06946 6.06097 1.9443 6.15375 1.85203C6.24652 1.75976 6.37236 1.70794 6.50356 1.70794C6.63311 1.70917 6.75724 1.75977 6.8504 1.84932C6.94439 1.94213 6.99756 2.06822 6.99824 2.19995V13.8727H8.09565V8.8224C8.09565 8.69191 8.14777 8.56677 8.24054 8.4745C8.33331 8.38223 8.45913 8.33039 8.59033 8.33039C8.65515 8.3302 8.71934 8.34315 8.77897 8.36843C8.8386 8.39371 8.89243 8.4308 8.93719 8.47743C8.98382 8.52215 9.02092 8.57573 9.04632 8.63499C9.07172 8.69425 9.08487 8.75798 9.08502 8.8224V13.8557H10.5805V10.6547C10.5805 10.5437 10.6248 10.4373 10.7037 10.3588C10.7826 10.2803 10.8896 10.2362 11.0012 10.2362C11.0563 10.2364 11.1109 10.2475 11.1616 10.2689C11.2124 10.2902 11.2584 10.3214 11.2969 10.3607C11.3369 10.3986 11.3686 10.4442 11.3901 10.4948C11.4116 10.5454 11.4225 10.5998 11.422 10.6547V13.8557H17.3639V15.886C17.0569 16.033 16.7328 16.1631 16.4371 16.3328C8.80641 21.0946 3.85384 28.7746 1.65333 37.5009L1.67039 13.8727ZM60.2653 44.7228C57.2517 61.8247 35.7299 61.1687 33.012 44.7228C32.8073 40.9393 33.6261 36.7544 35.2296 32.2809C40.3072 33.9776 43.7587 37.3199 44.7025 42.4606C44.7433 42.6856 44.8722 42.8853 45.0609 43.0158C45.2497 43.1462 45.4828 43.1967 45.709 43.1562C45.9352 43.1157 46.136 42.9875 46.2671 42.7998C46.3983 42.6121 46.4491 42.3802 46.4084 42.1552C45.3621 36.3754 41.3876 32.4902 35.7015 30.6296C26.7459 27.898 18.4955 33.3837 17.381 42.8961V57.1703H1.77843V48.2178C2.28449 40.9393 3.9107 34.1472 7.1347 28.4692C9.55228 24.1433 13.0324 20.4972 17.2502 17.871C17.2768 17.8593 17.3017 17.8441 17.3241 17.8258H17.3583L17.4208 17.7918L17.5402 17.7353L18.2225 17.4129C23.2236 15.0939 28.7656 14.1745 34.2527 14.7534C39.7398 15.3323 44.9645 17.3878 49.3651 20.6987C56.2737 26.1901 61.4537 36.2058 60.2653 44.7228ZM91.2771 57.1646H75.9645V41.7933C75.0548 34.1302 67.5435 28.6106 59.0371 30.245C56.6038 25.3474 53.0045 21.1151 48.552 17.9163C53.351 15.1847 57.138 14.6192 63.5064 14.557C79.0521 14.9076 90.9928 28.3222 91.2771 41.7933V57.1646Z" fill="#F2F2F2"/>
<path d="M396 45L386.683 64H377.95L375.185 57.7249C374.204 55.4877 373.269 52.9285 373.269 52.9285H373.048C373.048 52.9285 372.119 55.4767 371.121 57.7412L368.373 64H359.424L350 45.0218H360.308L362.53 50.2875C363.476 52.5574 364.366 55.1002 364.366 55.1002H364.581C364.581 55.1002 365.517 52.5411 366.486 50.3093L368.82 45.0218H377.287L379.735 50.342C380.744 52.5247 381.674 55.0511 381.674 55.0511H381.895C381.895 55.0511 382.733 52.5302 383.657 50.2438L385.76 45.0218L396 45Z" fill="white"/>
<path d="M427 54.5083C427 61.1525 422.577 65 411.503 65C400.429 65 396 61.1525 396 54.5083C396 47.8642 400.423 44 411.503 44C422.583 44 427 47.8475 427 54.5083ZM417.409 54.5083C417.409 51.6894 415.768 49.9547 411.492 49.9547C407.215 49.9547 405.568 51.6894 405.568 54.5083C405.568 57.3272 407.21 59.0508 411.492 59.0508C415.773 59.0508 417.421 57.3106 417.421 54.5083H417.409Z" fill="white"/>
<path d="M437.993 44.5148V47.2513H438.212C440.615 45.0129 443.674 44 448.558 44C449.374 44.0025 450.189 44.051 451 44.1455V52.5394C449.636 52.2867 448.251 52.1612 446.863 52.1645C442.754 52.1645 438.156 52.9871 438.156 58.2473V64H429V44.5148H437.993Z" fill="white"/>
<path d="M454 37H463V64H454V37Z" fill="white"/>
<path d="M487.681 46.1431V37H497V64.1381H487.869V61.9368H487.652C485.552 63.8819 482.875 65 478.806 65C470.497 65 466 61.2379 466 54.1739C466 47.1098 470.497 43.3477 478.806 43.3477C482.875 43.3477 485.443 44.4426 487.475 46.1664L487.681 46.1431ZM487.955 54.1506C487.955 51.3378 486.043 49.5266 481.677 49.5266C477.311 49.5266 475.639 51.2155 475.639 54.1506C475.639 57.0857 477.351 58.7745 481.677 58.7745C486.003 58.7745 487.955 56.9634 487.955 54.1506Z" fill="white"/>
<path d="M296.17 46.3487C293.652 41.8222 289.528 38.4643 284.657 36.9729C282.762 41.0956 282.078 45.6942 282.689 50.2082C283.046 52.6379 283.574 56.2591 286.455 59.4328C290.277 63.6412 295.404 63.955 296.323 63.9957C298.903 64.0564 301.458 63.4701 303.766 62.2879C306.074 61.1057 308.065 59.3633 309.566 57.2124C315.567 48.2261 309.816 32.41 299.482 24.6909C289.149 16.9718 276.796 19.1515 274 19.7153C279.371 19.9983 284.496 22.1092 288.564 25.7139C292.234 29.1102 294.75 33.6189 295.745 38.583C296.283 41.1327 296.427 43.7533 296.17 46.3487Z" fill="#F76E11"/>
<path d="M256.398 31.4287C253.512 35.7193 252.802 39.7643 251.902 44.7691C250.817 50.7907 250.71 56.945 251.584 63H267.502C267.3 59.3195 267.566 55.6284 268.293 52.0134C269.701 45.0433 270.832 39.0673 275.796 36.4563C280.413 34.0282 286.266 35.5708 289.977 37.9989C293.352 40.2825 295.75 43.7254 296.706 47.66C297.595 41.9517 296.452 36.1153 293.474 31.1487C292.47 29.5262 286.704 20.6192 276.315 20.0308C265.147 19.3909 258.1 28.9206 256.398 31.4287Z" fill="#F76E11"/>
<path d="M326.102 63.8673L341.993 64C342.072 60.2847 341.5 56.5851 340.304 53.0769C339.313 50.1918 336.82 42.8808 329.519 38.3743C321.363 33.3426 312.88 35.293 311 35.7777C313.893 35.9046 320.569 36.5912 323.434 41.369C324.431 43.0309 324.605 44.5831 324.954 48.5876C325.303 52.5922 325.725 57.8143 326.102 63.8673Z" fill="#F76E11"/>
<path d="M299 22.2011C301.71 20.9367 304.571 20.0508 307.509 19.5671C310.575 19.0656 320.297 17.4633 329.45 23.5614C338.602 29.6595 341.5 39.527 342.283 44.2418C342.689 47.1407 342.921 50.0628 342.976 52.9912C343.065 56.6677 342.906 60.3461 342.501 64C342.383 61.9193 341.583 51.3197 332.856 43.2504C323.419 34.5183 312.051 35.527 310.239 35.7172L299 22.2011Z" fill="#F76E11"/>
<path d="M268 18.5652V20.6675C267.664 20.8181 267.322 20.9513 266.999 21.1309C258.724 26.0479 253.363 33.994 251 43V18.5652H255.696V6.50705C255.696 6.40663 255.728 6.3086 255.787 6.22527C255.846 6.14193 255.93 6.077 256.028 6.03864C256.126 6.00028 256.233 5.9902 256.337 6.00966C256.441 6.02911 256.537 6.07722 256.612 6.14798C256.661 6.19533 256.7 6.25143 256.726 6.31306C256.752 6.37468 256.765 6.44061 256.764 6.50705V18.5652H257.937V13.3527C257.937 13.2186 257.993 13.0898 258.092 12.9944C258.191 12.899 258.327 12.8446 258.468 12.8431C258.539 12.8421 258.609 12.855 258.674 12.8809C258.739 12.9068 258.798 12.9452 258.847 12.9937C258.948 13.0887 259.005 13.2178 259.005 13.3527V18.5652H260.63V15.264C260.63 15.1498 260.677 15.0401 260.762 14.9588C260.846 14.8776 260.961 14.8311 261.082 14.8296C261.203 14.8303 261.319 14.8761 261.405 14.957C261.448 14.9969 261.482 15.0447 261.505 15.0975C261.529 15.1502 261.54 15.2068 261.54 15.264V18.5652H268Z" fill="#F76E11"/>
<path d="M344 47.4788C343.662 31.9179 329.853 18.2051 314.488 18.0625C309.134 18.0625 306.423 18.4504 302.393 19.905C300.784 20.4758 299.265 21.2788 297.884 22.2893C289.266 17.5549 279.126 16.6479 270.057 20.4241V19.1007C270.057 18.6468 269.879 18.2116 269.562 17.8907C269.245 17.5697 268.815 17.3894 268.366 17.3894H264.122V15.8721C264.122 15.5878 264.067 15.3062 263.959 15.0435C263.851 14.7809 263.693 14.5423 263.494 14.3415C263.295 14.1406 263.059 13.9815 262.799 13.8732C262.54 13.7649 262.261 13.7095 261.98 13.7103C261.909 13.7044 261.837 13.7044 261.766 13.7103C261.693 13.1978 261.451 12.7255 261.078 12.371C260.705 12.0165 260.224 11.8008 259.714 11.7595V7.23608C259.715 6.94241 259.658 6.65151 259.547 6.38028C259.436 6.10906 259.272 5.86288 259.066 5.65602C258.863 5.44653 258.619 5.28054 258.351 5.16786C258.083 5.05518 257.795 4.99811 257.505 5.00005C256.918 5.00005 256.356 5.23544 255.941 5.65461C255.525 6.07378 255.291 6.64252 255.29 7.23608V17.378H252.675C252.449 17.3775 252.225 17.4221 252.016 17.5092C251.807 17.5963 251.617 17.7243 251.457 17.8857L251.322 18.0397L251.249 18.1424L251.204 18.2108L251.136 18.3363C251.108 18.3938 251.084 18.4528 251.063 18.5132V18.5588C251.04 18.626 251.021 18.6946 251.006 18.7641C251.004 18.7926 251.004 18.8213 251.006 18.8497C250.998 18.937 250.998 19.0248 251.006 19.1121V63.1652C251.006 63.619 251.184 64.0543 251.502 64.3752C251.819 64.6962 252.249 64.8764 252.697 64.8764H268.389C268.834 64.8677 269.26 64.6846 269.575 64.3655C269.89 64.0465 270.071 63.6163 270.08 63.1652V48.7451C271.027 41.0788 276.916 36.0192 284.548 37.4053C283.026 41.7747 281.662 46.3722 282.294 50.7302C285.32 69.6109 309.804 69.9018 312.944 50.7302C313.581 46.5205 312.617 41.5009 310.836 37.3768C317.774 36.2645 324.245 40.5311 325.231 47.6157V63.1367C325.231 63.5905 325.409 64.0258 325.726 64.3467C326.043 64.6676 326.473 64.8479 326.922 64.8479H342.236C342.686 64.8465 343.119 64.6667 343.44 64.3468C343.761 64.027 343.946 63.5927 343.955 63.1367C343.994 63.1139 344 47.513 344 47.4788ZM252.692 19.1007H257.026V7.22466C257.026 7.12575 257.056 7.02921 257.11 6.94713C257.165 6.86505 257.242 6.8011 257.332 6.76332C257.423 6.72554 257.522 6.71562 257.618 6.73477C257.714 6.75393 257.802 6.80132 257.871 6.87101C257.917 6.91764 257.952 6.9729 257.977 7.03359C258.001 7.09429 258.013 7.15922 258.012 7.22466V19.1007H259.094V13.967C259.094 13.8348 259.146 13.708 259.238 13.614C259.329 13.52 259.454 13.4665 259.585 13.465C259.65 13.464 259.715 13.4767 259.775 13.5022C259.835 13.5277 259.889 13.5656 259.934 13.6133C260.027 13.7069 260.08 13.8341 260.081 13.967V19.1007H261.58V15.8493C261.58 15.7368 261.624 15.6289 261.702 15.5488C261.78 15.4687 261.886 15.423 261.997 15.4215C262.109 15.4222 262.216 15.4673 262.296 15.547C262.336 15.5863 262.367 15.6334 262.388 15.6853C262.41 15.7373 262.42 15.7931 262.42 15.8493V19.1007H268.383V21.1713C268.073 21.3196 267.757 21.4508 267.459 21.6276C259.821 26.4704 254.873 34.2965 252.692 43.1665V19.1007ZM311.309 50.4735C308.294 67.8768 286.769 67.2037 284.052 50.4735C283.849 46.6232 284.666 42.3679 286.273 37.7989C291.345 39.5101 294.801 42.9326 295.742 48.1633C295.798 48.3751 295.931 48.5577 296.114 48.6748C296.297 48.792 296.517 48.8351 296.73 48.7955C296.943 48.756 297.134 48.6367 297.264 48.4614C297.394 48.2862 297.454 48.0677 297.433 47.8496C296.39 41.9686 292.416 38.0156 286.724 36.1218C277.773 33.3382 269.522 38.9283 268.406 48.6025V63.131H252.77V54.0043C253.283 46.589 254.907 39.6812 258.131 33.9029C260.548 29.4983 264.029 25.7854 268.248 23.1107L268.321 23.0651H268.355L268.423 23.0309L268.535 22.9738L269.217 22.643C274.225 20.2965 279.771 19.3753 285.257 19.9783C290.744 20.5813 295.964 22.6857 300.358 26.0654C307.274 31.6384 312.453 41.826 311.264 50.4963L311.309 50.4735ZM342.309 63.131H326.967V47.513C326.054 39.7212 318.541 34.1026 310.058 35.7625C307.622 30.7799 304.024 26.4727 299.574 23.2134C304.371 20.4355 308.159 19.8593 314.528 19.7909C330.073 20.1502 342.016 33.8003 342.303 47.5016L342.309 63.131Z" fill="#F2F2F2"/>
<path d="M618.811 62.1685V70.0003H611V45.837H618.666V48.0955H618.85C620.591 46.3349 622.856 45.3574 626.249 45.3574C633.228 45.3574 637 48.7208 637 55.0349C637 61.3489 633.228 64.7123 626.249 64.7123C622.856 64.7123 620.669 63.7348 618.995 62.1928L618.811 62.1685ZM618.577 55.0106C618.577 57.524 620.184 59.145 623.799 59.145C627.415 59.145 628.876 57.6333 628.876 55.0106C628.876 52.3878 627.465 50.8761 623.799 50.8761C620.133 50.8761 618.577 52.5214 618.577 55.0349V55.0106Z" fill="white"/>
<path d="M646.776 45.8679V48.5087H646.963C649.043 46.3658 651.676 45.3574 655.898 45.3574C656.6 45.3597 657.302 45.406 658 45.4961V53.5885C656.824 53.3439 655.63 53.2236 654.434 53.2293C650.885 53.2293 646.912 54.0234 646.912 59.0969V64.6431H639V45.8679H646.776Z" fill="white"/>
<path d="M686 54.47C686 60.9141 682.291 64.6423 673.003 64.6423C663.714 64.6423 660 60.9141 660 54.47C660 48.0259 663.709 44.2852 673.003 44.2852C682.297 44.2852 686 48.0196 686 54.47ZM677.97 54.47C677.97 51.7415 676.59 50.0692 673.003 50.0692C669.415 50.0692 668.036 51.7603 668.036 54.47C668.036 57.1797 669.415 58.8709 673.003 58.8709C676.59 58.8709 677.97 57.1923 677.97 54.47Z" fill="white"/>
<path d="M706.894 48.0527V40H715V63.8771H707.05V61.9446H706.836C705.006 63.6557 702.678 64.6429 699.135 64.6429C691.908 64.6429 688 61.3284 688 55.1064C688 48.8844 691.908 45.5699 699.135 45.5699C702.678 45.5699 704.925 46.5331 706.662 48.0527H706.894ZM707.137 55.1064C707.137 52.6295 705.469 51.0322 701.694 51.0322C697.919 51.0322 696.448 52.5218 696.448 55.1064C696.448 57.6909 697.913 59.1806 701.694 59.1806C705.475 59.1806 707.137 57.5832 707.137 55.1064Z" fill="white"/>
<path d="M734.163 61.7522H733.976C731.906 63.6417 729.255 64.6431 725.616 64.6431C720.463 64.6431 717 62.3946 717 57.3244V45.3574H724.962V54.446C724.962 57.0158 726.469 58.0739 729.085 58.0739C731.439 58.0739 734.038 57.0788 734.038 53.4572V45.3637H742V64.1393H734.163V61.7522Z" fill="white"/>
<path d="M762.392 56.6799H771C770.62 61.4447 767.54 64.6431 757.904 64.6431C748.702 64.6431 745 61.1112 745 55.0062C745 48.9013 748.702 45.3574 757.904 45.3574C767.54 45.3574 770.505 48.5975 770.967 53.1896H762.403C762.089 52.0937 761.209 50.8072 757.904 50.8072C754.384 50.8072 753.008 52.3856 753.008 54.9764C753.008 57.5673 754.384 59.1457 757.904 59.1457C761.209 59.1695 762.106 57.8711 762.392 56.6799Z" fill="white"/>
<path d="M788.965 58.0663V64.3361C787.325 64.5371 785.676 64.6399 784.025 64.6437C777.289 64.6437 775.412 63.0378 775.412 58.3863V50.726H772V45.9945H775.412V41.0723H783.548V45.9945H789V50.726H783.548V56.7496C783.548 57.9125 784.246 58.1894 785.925 58.1894C786.855 58.1894 788.076 58.1586 788.965 58.0663Z" fill="white"/>
<path d="M791 40H799V44.2494H791V40ZM791.067 46.3373H798.927V64.6429H791.067V46.3373Z" fill="white"/>
<path d="M828 54.47C828 60.9141 824.149 64.6423 814.503 64.6423C804.857 64.6423 801 60.9141 801 54.47C801 48.0259 804.851 44.2852 814.503 44.2852C824.154 44.2852 828 48.0196 828 54.47ZM819.661 54.47C819.661 51.7415 818.228 50.0692 814.503 50.0692C810.778 50.0692 809.345 51.7603 809.345 54.47C809.345 57.1797 810.778 58.8709 814.503 58.8709C818.228 58.8709 819.661 57.1923 819.661 54.47Z" fill="white"/>
<path d="M837.808 48.243H837.996C840.066 46.3529 842.727 45.3574 846.367 45.3574C851.52 45.3574 855 47.6067 855 52.6723V64.6431H847.038V55.5516C847.038 52.9747 845.531 51.9162 842.915 51.9162C840.561 51.9162 837.962 52.918 837.962 56.5344V64.6368H830V45.8552H837.814L837.808 48.243Z" fill="white"/>
<path d="M558.17 46.3487C555.652 41.8222 551.528 38.4643 546.657 36.9729C544.762 41.0956 544.078 45.6942 544.689 50.2082C545.046 52.6379 545.574 56.2591 548.455 59.4328C552.277 63.6412 557.404 63.955 558.323 63.9957C560.903 64.0564 563.458 63.4701 565.766 62.2879C568.074 61.1057 570.065 59.3633 571.566 57.2124C577.567 48.2261 571.816 32.41 561.482 24.6909C551.149 16.9718 538.796 19.1515 536 19.7153C541.371 19.9983 546.496 22.1092 550.564 25.7139C554.234 29.1102 556.75 33.6189 557.745 38.583C558.283 41.1327 558.427 43.7533 558.17 46.3487Z" fill="#E80F0F"/>
<path d="M518.398 31.4287C515.512 35.7193 514.802 39.7643 513.902 44.7691C512.817 50.7907 512.71 56.945 513.584 63H529.502C529.3 59.3195 529.566 55.6284 530.293 52.0134C531.701 45.0433 532.832 39.0673 537.796 36.4563C542.413 34.0282 548.266 35.5708 551.977 37.9989C555.352 40.2825 557.75 43.7254 558.706 47.66C559.595 41.9517 558.452 36.1153 555.474 31.1487C554.47 29.5262 548.704 20.6192 538.315 20.0308C527.147 19.3909 520.1 28.9206 518.398 31.4287Z" fill="#E80F0F"/>
<path d="M588.102 63.8673L603.993 64C604.072 60.2847 603.5 56.5851 602.304 53.0769C601.313 50.1918 598.82 42.8808 591.519 38.3743C583.363 33.3426 574.88 35.293 573 35.7777C575.893 35.9046 582.569 36.5912 585.434 41.369C586.431 43.0309 586.605 44.5831 586.954 48.5876C587.303 52.5922 587.725 57.8143 588.102 63.8673Z" fill="#E80F0F"/>
<path d="M561 22.2011C563.71 20.9367 566.571 20.0508 569.509 19.5671C572.575 19.0656 582.297 17.4633 591.45 23.5614C600.602 29.6595 603.5 39.527 604.283 44.2418C604.689 47.1407 604.921 50.0628 604.976 52.9912C605.065 56.6677 604.906 60.3461 604.501 64C604.383 61.9193 603.583 51.3197 594.856 43.2504C585.419 34.5183 574.051 35.527 572.239 35.7172L561 22.2011Z" fill="#E80F0F"/>
<path d="M530 18.5652V20.6675C529.664 20.8181 529.322 20.9513 528.999 21.1309C520.724 26.0479 515.363 33.994 513 43V18.5652H517.696V6.50705C517.696 6.40663 517.728 6.3086 517.787 6.22527C517.846 6.14193 517.93 6.077 518.028 6.03864C518.126 6.00028 518.233 5.9902 518.337 6.00966C518.441 6.02911 518.537 6.07722 518.612 6.14798C518.661 6.19533 518.7 6.25143 518.726 6.31306C518.752 6.37468 518.765 6.44061 518.764 6.50705V18.5652H519.937V13.3527C519.937 13.2186 519.993 13.0898 520.092 12.9944C520.191 12.899 520.327 12.8446 520.468 12.8431C520.539 12.8421 520.609 12.855 520.674 12.8809C520.739 12.9068 520.798 12.9452 520.847 12.9937C520.948 13.0887 521.005 13.2178 521.005 13.3527V18.5652H522.63V15.264C522.63 15.1498 522.677 15.0401 522.762 14.9588C522.846 14.8776 522.961 14.8311 523.082 14.8296C523.203 14.8303 523.319 14.8761 523.405 14.957C523.448 14.9969 523.482 15.0447 523.505 15.0975C523.529 15.1502 523.54 15.2068 523.54 15.264V18.5652H530Z" fill="#E80F0F"/>
<path d="M606 47.4788C605.662 31.9179 591.853 18.2051 576.488 18.0625C571.134 18.0625 568.423 18.4504 564.393 19.905C562.784 20.4758 561.265 21.2788 559.884 22.2893C551.266 17.5549 541.126 16.6479 532.057 20.4241V19.1007C532.057 18.6468 531.879 18.2116 531.562 17.8907C531.245 17.5697 530.815 17.3894 530.366 17.3894H526.122V15.8721C526.122 15.5878 526.067 15.3062 525.959 15.0435C525.851 14.7809 525.693 14.5423 525.494 14.3415C525.295 14.1406 525.059 13.9815 524.799 13.8732C524.54 13.7649 524.261 13.7095 523.98 13.7103C523.909 13.7044 523.837 13.7044 523.766 13.7103C523.693 13.1978 523.451 12.7255 523.078 12.371C522.705 12.0165 522.224 11.8008 521.714 11.7595V7.23608C521.715 6.94241 521.658 6.65151 521.547 6.38028C521.436 6.10906 521.272 5.86288 521.066 5.65602C520.863 5.44653 520.619 5.28054 520.351 5.16786C520.083 5.05518 519.795 4.99811 519.505 5.00005C518.918 5.00005 518.356 5.23544 517.941 5.65461C517.525 6.07378 517.291 6.64252 517.29 7.23608V17.378H514.675C514.449 17.3775 514.225 17.4221 514.016 17.5092C513.807 17.5963 513.617 17.7243 513.457 17.8857L513.322 18.0397L513.249 18.1424L513.204 18.2108L513.136 18.3363C513.108 18.3938 513.084 18.4528 513.063 18.5132V18.5588C513.04 18.626 513.021 18.6946 513.006 18.7641C513.004 18.7926 513.004 18.8213 513.006 18.8497C512.998 18.937 512.998 19.0248 513.006 19.1121V63.1652C513.006 63.619 513.184 64.0543 513.502 64.3752C513.819 64.6962 514.249 64.8764 514.697 64.8764H530.389C530.834 64.8677 531.26 64.6846 531.575 64.3655C531.89 64.0465 532.071 63.6163 532.08 63.1652V48.7451C533.027 41.0788 538.916 36.0192 546.548 37.4053C545.026 41.7747 543.662 46.3722 544.294 50.7302C547.32 69.6109 571.804 69.9018 574.944 50.7302C575.581 46.5205 574.617 41.5009 572.836 37.3768C579.774 36.2645 586.245 40.5311 587.231 47.6157V63.1367C587.231 63.5905 587.409 64.0258 587.726 64.3467C588.043 64.6676 588.473 64.8479 588.922 64.8479H604.236C604.686 64.8465 605.119 64.6667 605.44 64.3468C605.761 64.027 605.946 63.5927 605.955 63.1367C605.994 63.1139 606 47.513 606 47.4788ZM514.692 19.1007H519.026V7.22466C519.026 7.12575 519.056 7.02921 519.11 6.94713C519.165 6.86505 519.242 6.8011 519.332 6.76332C519.423 6.72554 519.522 6.71562 519.618 6.73477C519.714 6.75393 519.802 6.80132 519.871 6.87101C519.917 6.91764 519.952 6.9729 519.977 7.03359C520.001 7.09429 520.013 7.15922 520.012 7.22466V19.1007H521.094V13.967C521.094 13.8348 521.146 13.708 521.238 13.614C521.329 13.52 521.454 13.4665 521.585 13.465C521.65 13.464 521.715 13.4767 521.775 13.5022C521.835 13.5277 521.889 13.5656 521.934 13.6133C522.027 13.7069 522.08 13.8341 522.081 13.967V19.1007H523.58V15.8493C523.58 15.7368 523.624 15.6289 523.702 15.5488C523.78 15.4687 523.886 15.423 523.997 15.4215C524.109 15.4222 524.216 15.4673 524.296 15.547C524.336 15.5863 524.367 15.6334 524.388 15.6853C524.41 15.7373 524.42 15.7931 524.42 15.8493V19.1007H530.383V21.1713C530.073 21.3196 529.757 21.4508 529.459 21.6276C521.821 26.4704 516.873 34.2965 514.692 43.1665V19.1007ZM573.309 50.4735C570.294 67.8768 548.769 67.2037 546.052 50.4735C545.849 46.6232 546.666 42.3679 548.273 37.7989C553.345 39.5101 556.801 42.9326 557.742 48.1633C557.798 48.3751 557.931 48.5577 558.114 48.6748C558.297 48.792 558.517 48.8351 558.73 48.7955C558.943 48.756 559.134 48.6367 559.264 48.4614C559.394 48.2862 559.454 48.0677 559.433 47.8496C558.39 41.9686 554.416 38.0156 548.724 36.1218C539.773 33.3382 531.522 38.9283 530.406 48.6025V63.131H514.77V54.0043C515.283 46.589 516.907 39.6812 520.131 33.9029C522.548 29.4983 526.029 25.7854 530.248 23.1107L530.321 23.0651H530.355L530.423 23.0309L530.535 22.9738L531.217 22.643C536.225 20.2965 541.771 19.3753 547.257 19.9783C552.744 20.5813 557.964 22.6857 562.358 26.0654C569.274 31.6384 574.453 41.826 573.264 50.4963L573.309 50.4735ZM604.309 63.131H588.967V47.513C588.054 39.7212 580.541 34.1026 572.058 35.7625C569.622 30.7799 566.024 26.4727 561.574 23.2134C566.371 20.4355 570.159 19.8593 576.528 19.7909C592.073 20.1502 604.016 33.8003 604.303 47.5016L604.309 63.131Z" fill="#F2F2F2"/>
<path d="M992.966 63.0229V69.68C991.131 69.8902 989.286 69.997 987.44 70C979.913 70 977.815 68.2857 977.815 63.3657V55.2343H974V50.2171H977.815V45H986.911V50.2286H993V55.2457H986.911V61.6343C986.911 62.8686 987.684 63.1657 989.566 63.1657C990.601 63.1543 991.965 63.12 992.966 63.0229Z" fill="white"/>
<path d="M1024.91 61.4434H1003.58C1003.91 63.889 1005.65 65.0805 1009.58 65.0805C1013.51 65.0805 1014.5 63.7641 1014.74 63.191H1024.72C1024.43 66.6409 1021.79 70 1009.57 70C998.427 70 994 66.1529 994 59.5085C994 52.8641 998.427 49 1009.52 49C1020.49 49 1025 52.8641 1025 59.5085C1024.99 60.0135 1024.96 60.9157 1024.91 61.4434ZM1003.73 56.8417H1015.27C1014.7 54.8841 1012.98 53.9195 1009.53 53.9195C1006.09 53.9195 1004.29 54.8784 1003.73 56.8417Z" fill="white"/>
<path d="M1057 68.9554V69.1711H1047.96C1047.59 68.5874 1047.42 67.9028 1047.48 67.2182V66.5483C1045.54 68.7567 1042.02 70 1036.92 70C1031.6 70 1027 68.2968 1027 63.5791C1027 59.1565 1029.81 57.6691 1034.15 57.3341L1044.8 56.5053C1046.24 56.3974 1046.95 56.1022 1046.95 55.2336C1046.95 54.2628 1045.76 53.8143 1042.92 53.8143C1040.35 53.8143 1038.71 54.2514 1038.22 55.6991H1028.36C1028.61 50.1809 1034.17 49 1042.61 49C1051.34 49 1056.52 49.897 1056.52 55.2109V66.0827C1056.53 67.2068 1056.53 68.2685 1057 68.9554ZM1047.32 60.1671C1046.72 60.4411 1046.08 60.6065 1045.43 60.6553L1039.28 61.4161C1037.45 61.6318 1036.57 62.1882 1036.57 63.4315C1036.57 64.7883 1037.72 65.2595 1040.02 65.2595C1043.63 65.2595 1047.3 64.056 1047.3 60.7802L1047.32 60.1671Z" fill="white"/>
<path d="M1067.91 52.9231H1068.13C1070.05 50.9617 1073.31 50 1076.83 50C1080.35 50 1083.19 50.7226 1084.65 52.9774C1086.78 50.9617 1090.13 50 1093.99 50C1099.27 50 1103 52.2168 1103 57.199V69H1093.91V59.5244C1093.91 57.3512 1092.45 56.4655 1090.09 56.4655C1087.94 56.4655 1085.55 57.3131 1085.55 60.3612V69H1076.45V59.5244C1076.45 57.3512 1074.99 56.4655 1072.64 56.4655C1070.48 56.4655 1068.09 57.3131 1068.09 60.3612V69H1059V50.4944H1067.92L1067.91 52.9231Z" fill="white"/>
<path d="M921.578 52.1202C919.123 47.7974 915.104 44.5913 910.358 43.1681C910.358 43.1681 906.625 52.1486 908.666 58.738C910.2 63.7071 915.432 68.5911 921.73 68.9764C926.991 69.2937 931.998 66.3757 934.631 62.5002C940.472 53.9163 934.873 38.811 924.809 31.4339C914.744 24.0569 902.718 26.1476 900 26.6859C905.234 26.9543 910.229 28.9724 914.192 32.4198C917.772 35.6555 920.223 39.9617 921.183 44.7035C921.707 47.1389 921.84 49.6427 921.578 52.1202Z" fill="#492E7C"/>
<path d="M882.168 37.1644C879.424 41.3506 878.725 45.2976 877.863 50.1958C876.826 56.0764 876.723 62.0866 877.559 68L893.237 67.9658C892.109 58.46 893.935 52.1095 895.237 48.789C895.703 47.4078 896.448 46.1394 897.424 45.0641C901.211 41.0431 908.83 40.1944 914.28 43.5776C919.036 46.5336 920.4 51.6311 920.721 53.0151C921.569 47.4391 920.471 41.7387 917.616 36.891C916.658 35.302 911.141 26.6049 901.205 26.0297C890.532 25.4088 883.769 34.7153 882.168 37.1644Z" fill="#492E7C"/>
<path d="M950.613 68.8749L965.993 69C966.069 65.4124 965.518 61.8398 964.364 58.4509C963.402 55.653 960.989 48.6127 953.927 44.2622C946.031 39.4 937.802 41.2823 936 41.7487C938.78 41.8738 945.258 42.5391 948.033 47.1512C948.995 48.7549 949.145 50.2562 949.506 54.1175C949.868 57.9789 950.246 63.0288 950.613 68.8749Z" fill="#492E7C"/>
<path d="M893 25.2164V27.2851C892.708 27.4345 892.4 27.5666 892.12 27.739C884.821 32.5199 880.085 40.2428 878 49V25.2164H882.142V13.4942C882.143 13.3636 882.194 13.2387 882.282 13.1464C882.37 13.054 882.49 13.0015 882.615 13C882.678 13.0001 882.74 13.0134 882.797 13.0391C882.855 13.0648 882.907 13.1023 882.951 13.1494C883.038 13.2411 883.087 13.3649 883.088 13.4942V25.2164H884.122V20.1655C884.122 20.0354 884.171 19.9106 884.259 19.8181C884.346 19.7256 884.465 19.6729 884.59 19.6713C884.715 19.6714 884.836 19.723 884.925 19.815C884.969 19.8609 885.004 19.9156 885.028 19.9758C885.051 20.036 885.063 20.1005 885.063 20.1655V25.2164H886.498V22.0101C886.496 21.9264 886.518 21.8439 886.561 21.7735C886.604 21.7031 886.667 21.648 886.741 21.6157C886.815 21.5833 886.896 21.5751 886.975 21.5922C887.053 21.6092 887.125 21.6507 887.18 21.7112C887.22 21.7493 887.251 21.7956 887.272 21.8471C887.292 21.8986 887.303 21.9541 887.301 22.0101V25.2164H893Z" fill="#492E7C"/>
<path d="M923 29.0551C925.71 27.8487 928.571 27.0036 931.508 26.542C934.575 26.0641 944.299 24.5293 953.453 30.3594C962.521 36.1333 965.501 45.6177 966.289 50.121C966.694 52.891 966.923 55.6831 966.975 58.4811C967.066 61.9938 966.91 65.5086 966.506 69C966.387 67.0154 965.587 56.8844 956.856 49.1709C947.417 40.8614 936.054 41.8003 934.238 41.9859L923 29.0551Z" fill="#492E7C"/>
<path d="M967.92 53.0344C967.585 37.9721 953.943 24.6912 938.754 24.5559C933.46 24.5559 930.793 24.9336 926.813 26.3372C925.23 26.8908 923.737 27.6673 922.377 28.6428C913.848 24.0655 903.84 23.1805 894.872 26.8389V25.5593C894.872 25.1108 894.692 24.6807 894.372 24.3635C894.052 24.0464 893.618 23.8682 893.166 23.8682H888.969V22.4025C888.969 21.8474 888.747 21.3148 888.352 20.9217C887.956 20.5286 887.42 20.307 886.86 20.3056H886.644C886.581 19.8295 886.361 19.3874 886.018 19.0485C885.646 18.6755 885.148 18.4526 884.619 18.4228V14.0597C884.591 13.504 884.348 12.9804 883.941 12.597C883.534 12.2137 882.994 12 882.433 12C881.871 12 881.332 12.2137 880.925 12.597C880.518 12.9804 880.275 13.504 880.246 14.0597V23.8795H877.659C877.208 23.8784 876.774 24.0547 876.453 24.3699L876.323 24.5221L876.249 24.6179L876.203 24.6912C876.203 24.725 876.158 24.7701 876.135 24.8096C876.112 24.849 876.084 24.9167 876.061 24.9787C876.038 25.0407 876.061 25.0069 876.061 25.0238C876.039 25.0886 876.02 25.1544 876.004 25.2211V25.3056C875.999 25.3901 875.999 25.4748 876.004 25.5593V68.215C876.004 68.6635 876.184 69.0936 876.504 69.4108C876.824 69.7279 877.258 69.9061 877.71 69.9061H893.217C893.67 69.9061 894.104 69.7279 894.423 69.4108C894.743 69.0936 894.923 68.6635 894.923 68.215V54.2576C895.861 46.8392 901.679 41.935 909.225 43.2822C907.723 47.5157 906.381 51.9633 907.013 56.1855C910.004 74.4665 934.211 74.7427 937.31 56.1855C937.941 52.1099 936.986 47.2507 935.229 43.2597C942.087 42.183 948.484 46.315 949.445 53.1753V68.2037C949.445 68.6522 949.625 69.0824 949.945 69.3995C950.265 69.7166 950.699 69.8948 951.151 69.8948H966.294C966.746 69.8948 967.18 69.7166 967.5 69.3995C967.82 69.0824 968 68.6522 968 68.2037L967.92 53.0344ZM877.648 25.5593H881.93V14.0597C881.931 13.9316 881.983 13.8091 882.074 13.7185C882.166 13.6279 882.289 13.5764 882.419 13.5749C882.483 13.5751 882.547 13.5881 882.607 13.6133C882.667 13.6385 882.721 13.6752 882.765 13.7215C882.856 13.8114 882.907 13.9329 882.908 14.0597V25.5593H883.977V20.6043C883.977 20.4767 884.027 20.3543 884.118 20.2635C884.208 20.1728 884.331 20.121 884.46 20.1195C884.59 20.1196 884.714 20.1702 884.807 20.2605C884.853 20.3055 884.889 20.3591 884.913 20.4182C884.937 20.4772 884.95 20.5405 884.949 20.6043V25.5593H886.433V22.4138C886.431 22.3317 886.453 22.2508 886.498 22.1817C886.543 22.1127 886.608 22.0587 886.684 22.0269C886.761 21.9952 886.845 21.9871 886.926 22.0039C887.007 22.0206 887.081 22.0613 887.138 22.1207C887.179 22.158 887.211 22.2035 887.233 22.254C887.254 22.3045 887.265 22.359 887.263 22.4138V25.5593H893.155V27.5886C892.853 27.7352 892.535 27.8649 892.245 28.034C884.699 32.724 879.803 40.3002 877.648 48.8911V25.5593ZM935.564 55.9544C932.585 72.8035 911.312 72.1553 908.628 55.9544C908.423 52.2283 909.23 48.1076 910.817 43.6825C915.838 45.3736 919.244 48.6487 920.177 53.7164C920.217 53.9362 920.343 54.1312 920.528 54.2586C920.713 54.386 920.942 54.4353 921.163 54.3957C921.385 54.3561 921.582 54.2308 921.71 54.0474C921.839 53.864 921.889 53.6374 921.849 53.4177C920.814 47.7242 916.89 43.891 911.266 42.059C902.418 39.3701 894.258 44.776 893.155 54.1448V68.2375H877.75V59.4042C878.25 52.2283 879.86 45.5371 883.044 39.9451C885.433 35.6791 888.875 32.0833 893.047 29.494L893.121 29.4489H893.149L893.217 29.415L893.331 29.3587L894.002 29.043C898.95 26.7658 904.43 25.8691 909.854 26.4491C915.277 27.0292 920.439 29.0641 924.783 32.3351C931.618 37.6959 936.741 47.5608 935.564 55.9544ZM966.226 68.215H951.083V53.0738C950.184 45.5258 942.758 40.1086 934.353 41.6926C931.946 36.8689 928.388 32.7008 923.987 29.5504C928.729 26.8558 932.471 26.2978 938.772 26.2358C954.125 26.5853 965.941 39.7985 966.226 53.0738V68.215Z" fill="#F2F2F2"/>
</svg>
