<svg width="1106" height="96" viewBox="0 0 1106 96" fill="none" xmlns="http://www.w3.org/2000/svg">
<path d="M141.826 92.0672H109.19V30.5548H108.338L82.6077 92.0672H57.965L31.7849 29.8691H30.9336V92.0672H0V1.77344H50.1133L69.9789 52.4306H70.8303L90.3647 1.77344H141.85V92.0672H141.826Z" fill="white"/>
<path d="M259.861 64.7286H185.175C186.334 73.3843 192.436 77.5939 206.176 77.5939C220.224 77.5939 223.417 72.9349 224.268 70.901H259.222C258.158 83.1042 248.934 94.9763 206.176 94.9763C167.154 94.9763 151.664 81.3778 151.664 57.8702C151.664 34.3626 167.154 20.7168 205.987 20.7168C244.394 20.7168 260.168 34.3863 260.168 57.8702C260.144 59.6676 260.026 62.8602 259.861 64.7286ZM185.696 48.4577H226.113C224.126 41.5284 218.025 38.1229 205.963 38.1229C193.807 38.0992 187.682 41.5284 185.696 48.4577Z" fill="white"/>
<path d="M341.972 31.3841V0.521484H374.088V92.0687H342.563V84.6428H341.806C334.569 91.2173 325.346 95.0012 311.322 95.0012C282.682 95.0012 267.192 82.3014 267.192 58.4391C267.192 34.5058 282.682 21.877 311.322 21.877C325.346 21.877 334.215 25.5663 341.215 31.3841H341.972ZM342.941 58.4391C342.941 48.932 336.343 42.8304 321.397 42.8304C306.426 42.8304 300.609 48.5299 300.609 58.4391C300.609 68.3482 306.426 74.0478 321.397 74.0478C336.343 74.0478 342.941 67.9225 342.941 58.4391Z" fill="white"/>
<path d="M384.683 0H417.319V15.8688H384.683V0ZM384.919 23.6731H417.035V92.0438H384.919V23.6731Z" fill="white"/>
<path d="M530.293 91.3106V92.0674H498.768C497.727 90.8849 497.112 88.3307 497.112 85.1617V82.7967C490.325 90.6011 478.075 94.9763 460.29 94.9763C441.725 94.9763 425.691 88.8747 425.691 72.2727C425.691 56.6404 435.482 51.3666 450.618 50.1605L487.771 47.2279C492.808 46.8495 495.244 45.809 495.244 42.7345C495.244 39.2817 491.105 37.7208 481.196 37.7208C472.257 37.7208 466.534 39.258 464.854 44.39H430.468C431.32 24.8791 450.712 20.7168 480.132 20.7168C510.569 20.7168 528.637 23.8859 528.637 42.6872V81.1413C528.637 85.1381 528.732 88.8747 530.293 91.3106ZM496.568 60.2352C495.055 61.2048 492.264 61.6304 489.97 61.9615L468.544 64.6576C462.135 65.4144 459.108 67.401 459.108 71.7761C459.108 76.577 463.199 78.2561 471.216 78.2561C483.774 78.2561 496.592 73.9991 496.592 62.4109V60.2352H496.568Z" fill="white"/>
<path d="M650.976 27.3622H610.11V92.0672H577.473V27.3622H536.607V1.77344H650.976V27.3622Z" fill="white"/>
<path d="M754.987 57.8702C754.987 81.3778 739.567 94.9763 700.947 94.9763C662.328 94.9763 646.908 81.3778 646.908 57.8702C646.908 34.3153 662.328 20.7168 700.947 20.7168C739.567 20.7168 754.987 34.3153 754.987 57.8702ZM721.594 57.8702C721.594 47.9138 715.87 41.7412 700.947 41.7412C686.025 41.7412 680.302 47.8901 680.302 57.8702C680.302 67.7794 686.025 73.9282 700.947 73.9282C715.87 73.9282 721.594 67.7794 721.594 57.8702Z" fill="white"/>
<path d="M912.894 23.6742L880.566 92.0449H850.247L840.669 69.436C837.263 61.3715 834.023 52.1482 834.023 52.1482H833.267C833.267 52.1482 830.027 61.3243 826.574 69.4834L817.019 92.0213H785.968L753.26 23.6506H789.042L796.728 42.6175C800.015 50.7766 803.09 59.9526 803.09 59.9526H803.847C803.847 59.9526 807.087 50.7293 810.445 42.6884L818.533 23.627H847.929L856.42 42.7831C859.92 50.6583 863.16 59.7634 863.16 59.7634H863.916C863.916 59.7634 866.825 50.682 870.041 42.4283L877.326 23.627H912.894V23.6742Z" fill="white"/>
<path d="M1019.53 64.7286H944.845C946.004 73.3843 952.105 77.5939 965.846 77.5939C979.894 77.5939 983.086 72.9349 983.938 70.901H1018.89C1017.83 83.1042 1008.6 94.9763 965.846 94.9763C926.824 94.9763 911.334 81.3778 911.334 57.8702C911.334 34.3626 926.824 20.7168 965.657 20.7168C1004.06 20.7168 1019.84 34.3863 1019.84 57.8702C1019.81 59.6676 1019.7 62.8602 1019.53 64.7286ZM945.365 48.4577H985.782C983.796 41.5284 977.694 38.1229 965.633 38.1229C953.477 38.0992 947.352 41.5284 945.365 48.4577Z" fill="white"/>
<path d="M1060.3 23.6723V33.2977H1061.06C1069.48 25.4933 1080.19 21.875 1097.31 21.875C1100.53 21.875 1103.75 22.1351 1105.85 22.3716V51.8153C1102.63 51.1767 1097.43 50.5145 1091.38 50.5145C1076.97 50.5145 1060.85 53.3997 1060.85 71.87V92.0667H1028.78V23.696H1060.3V23.6723Z" fill="white"/>
</svg>
