<svg width="227" height="58" viewBox="0 0 227 58" fill="none" xmlns="http://www.w3.org/2000/svg">
<path d="M116.966 51.0229V57.68C115.131 57.8902 113.286 57.997 111.44 58C103.913 58 101.815 56.2857 101.815 51.3657V43.2343H98V38.2171H101.815V33H110.911V38.2286H117V43.2457H110.911V49.6343C110.911 50.8686 111.684 51.1657 113.566 51.1657C114.601 51.1543 115.965 51.12 116.966 51.0229Z" fill="white"/>
<path d="M148.908 49.4434H127.582C127.915 51.889 129.652 53.0805 133.58 53.0805C137.508 53.0805 138.5 51.7641 138.741 51.191H148.725C148.427 54.6409 145.789 58 133.575 58C122.427 58 118 54.1529 118 47.5085C118 40.8641 122.427 37 133.517 37C144.487 37 149 40.8641 149 47.5085C148.994 48.0135 148.96 48.9157 148.908 49.4434ZM127.725 44.8417H139.269C138.695 42.8841 136.975 41.9195 133.534 41.9195C130.094 41.9195 128.293 42.8784 127.725 44.8417Z" fill="white"/>
<path d="M181 56.9554V57.1711H171.96C171.592 56.5874 171.425 55.9028 171.482 55.2182V54.5483C169.541 56.7567 166.023 58 160.921 58C155.595 58 151 56.2968 151 51.5791C151 47.1565 153.81 45.6691 158.146 45.3341L168.804 44.5053C170.244 44.3974 170.946 44.1022 170.946 43.2336C170.946 42.2628 169.76 41.8143 166.916 41.8143C164.347 41.8143 162.706 42.2514 162.223 43.6991H152.365C152.612 38.1809 158.169 37 166.61 37C175.34 37 180.522 37.897 180.522 43.2109V54.0827C180.534 55.2068 180.534 56.2685 181 56.9554ZM171.321 48.1671C170.724 48.4411 170.082 48.6065 169.426 48.6553L163.282 49.4161C161.445 49.6318 160.57 50.1882 160.57 51.4315C160.57 52.7883 161.722 53.2595 164.025 53.2595C167.63 53.2595 171.303 52.056 171.303 48.7802L171.321 48.1671Z" fill="white"/>
<path d="M191.915 40.9231H192.131C194.045 38.9617 197.313 38 200.83 38C204.347 38 207.188 38.7226 208.648 40.9774C210.784 38.9617 214.125 38 217.994 38C223.273 38 227 40.2168 227 45.199V57H217.909V47.5244C217.909 45.3512 216.449 44.4655 214.091 44.4655C211.937 44.4655 209.545 45.3131 209.545 48.3612V57H200.455V47.5244C200.455 45.3512 198.994 44.4655 196.636 44.4655C194.483 44.4655 192.091 45.3131 192.091 48.3612V57H183V38.4944H191.92L191.915 40.9231Z" fill="white"/>
<path d="M45.5781 40.1202C43.1226 35.7974 39.1042 32.5913 34.3577 31.1681C34.3577 31.1681 30.6251 40.1486 32.6662 46.738C34.1998 51.7071 39.4322 56.5911 45.7303 56.9764C50.9909 57.2937 55.9978 54.3757 58.6309 50.5002C64.4722 41.9163 58.8733 26.811 48.8088 19.4339C38.7443 12.0569 26.7177 14.1476 24 14.6859C29.2343 14.9543 34.2294 16.9724 38.1918 20.4198C41.7723 23.6555 44.2233 27.9617 45.1834 32.7035C45.7066 35.1389 45.8399 37.6427 45.5781 40.1202Z" fill="#492E7C"/>
<path d="M6.1684 25.1644C3.4239 29.3506 2.72509 33.2976 1.86286 38.1958C0.825525 44.0764 0.722791 50.0866 1.55854 56L17.2366 55.9658C16.1095 46.46 17.9354 40.1095 19.2372 36.789C19.7031 35.4078 20.4477 34.1394 21.4238 33.0641C25.2109 29.0431 32.8301 28.1944 38.2796 31.5776C43.036 34.5336 44.3998 39.6311 44.7211 41.0151C45.5686 35.4391 44.4709 29.7387 41.6159 24.891C40.6578 23.302 35.1406 14.6049 25.2052 14.0297C14.5315 13.4088 7.76889 22.7153 6.1684 25.1644Z" fill="#492E7C"/>
<path d="M74.6128 56.8749L89.993 57C90.0694 53.4124 89.5176 49.8398 88.3638 46.4509C87.4019 43.653 84.9886 36.6127 77.9269 32.2622C70.0311 27.4 61.8016 29.2823 60 29.7487C62.7802 29.8738 69.2581 30.5391 72.0328 35.1512C72.9948 36.7549 73.1449 38.2562 73.5063 42.1175C73.8678 45.9789 74.2459 51.0288 74.6128 56.8749Z" fill="#492E7C"/>
<path d="M17 13.2164V15.2851C16.7085 15.4345 16.4004 15.5666 16.1199 15.739C8.82068 20.5199 4.08471 28.2428 2 37V13.2164H6.14192V1.49417C6.14335 1.36357 6.19365 1.23874 6.28205 1.14639C6.37046 1.05404 6.48994 1.00149 6.61496 1C6.67762 1.00015 6.7396 1.01344 6.79724 1.03911C6.85488 1.06477 6.90701 1.10227 6.9505 1.14939C7.03775 1.2411 7.08712 1.36487 7.08802 1.49417V13.2164H8.12211V8.16551C8.1221 8.03543 8.17119 7.91061 8.25871 7.8181C8.34624 7.72559 8.46515 7.67285 8.58966 7.67134C8.71521 7.67139 8.83572 7.72298 8.9252 7.815C8.96931 7.86091 9.00418 7.91557 9.0278 7.97577C9.05141 8.03596 9.06329 8.10046 9.06271 8.16551V13.2164H10.4983V10.0101C10.4959 9.92638 10.5177 9.84389 10.5611 9.77347C10.6044 9.70306 10.6671 9.64804 10.741 9.61567C10.8149 9.58329 10.8965 9.57508 10.9749 9.59215C11.0534 9.60922 11.125 9.65074 11.1804 9.71124C11.2196 9.74931 11.2507 9.79563 11.2715 9.84713C11.2924 9.89862 11.3026 9.95415 11.3014 10.0101V13.2164H17Z" fill="#492E7C"/>
<path d="M47 17.0551C49.71 15.8487 52.5714 15.0036 55.5083 14.542C58.5747 14.0641 68.2993 12.5293 77.4528 18.3594C86.5207 24.1333 89.5015 33.6177 90.2895 38.121C90.6944 40.891 90.9232 43.6831 90.9747 46.4811C91.0661 49.9938 90.9097 53.5086 90.5065 57C90.3865 55.0154 89.5871 44.8844 80.8561 37.1709C71.4171 28.8614 60.0537 29.8003 58.2378 29.9859L47 17.0551Z" fill="#492E7C"/>
<path d="M91.9204 41.0344C91.5849 25.9721 77.943 12.6912 62.7545 12.5559C57.4604 12.5559 54.7934 12.9336 50.8129 14.3372C49.2305 14.8908 47.7366 15.6673 46.3774 16.6428C37.8477 12.0655 27.8395 11.1805 18.872 14.8389V13.5593C18.872 13.1108 18.6922 12.6807 18.3723 12.3635C18.0524 12.0464 17.6185 11.8682 17.166 11.8682H12.9694V10.4025C12.9694 9.84736 12.7473 9.31484 12.3518 8.92174C11.9564 8.52864 11.4198 8.30704 10.8597 8.30555H10.6436C10.5811 7.82948 10.3611 7.3874 10.0181 7.0485C9.64602 6.67551 9.14758 6.45255 8.61924 6.42277V2.05969C8.59064 1.50397 8.34781 0.980361 7.9409 0.597046C7.534 0.213731 6.99412 0 6.43279 0C5.87147 0 5.33159 0.213731 4.92468 0.597046C4.51778 0.980361 4.27494 1.50397 4.24634 2.05969V11.8795H1.659C1.20753 11.8784 0.774023 12.0547 0.453474 12.3699L0.322679 12.5221L0.248761 12.6179L0.203268 12.6912C0.203268 12.725 0.15777 12.7701 0.135025 12.8096C0.112279 12.849 0.0838522 12.9167 0.0611063 12.9787C0.0383605 13.0407 0.0611063 13.0069 0.0611063 13.0238C0.0387794 13.0886 0.0197963 13.1544 0.00423814 13.2211V13.3056C-0.00141271 13.3901 -0.00141271 13.4748 0.00423814 13.5593V56.215C0.00423814 56.6635 0.183969 57.0936 0.503896 57.4108C0.823822 57.7279 1.25774 57.9061 1.71018 57.9061H17.2172C17.6696 57.9061 18.1036 57.7279 18.4235 57.4108C18.7434 57.0936 18.9231 56.6635 18.9231 56.215V42.2576C19.8614 34.8392 25.6787 29.935 33.2246 31.2822C31.7234 35.5157 30.3814 39.9633 31.0126 44.1855C34.0037 62.4665 58.211 62.7427 61.3101 44.1855C61.9413 40.1099 60.986 35.2507 59.2289 31.2597C66.0867 30.183 72.484 34.315 73.445 41.1753V56.2037C73.445 56.6522 73.6248 57.0824 73.9447 57.3995C74.2646 57.7166 74.6985 57.8948 75.151 57.8948H90.2941C90.7465 57.8948 91.1804 57.7166 91.5004 57.3995C91.8203 57.0824 92 56.6522 92 56.2037L91.9204 41.0344ZM1.64763 13.5593H5.92955V2.05969C5.93103 1.93157 5.98303 1.80912 6.07442 1.71852C6.16581 1.62792 6.28934 1.57638 6.41858 1.57491C6.48335 1.57506 6.54744 1.5881 6.60702 1.61328C6.66661 1.63845 6.7205 1.67524 6.76546 1.72147C6.85566 1.81143 6.9067 1.93286 6.90763 2.05969V13.5593H7.97667V8.60432C7.97666 8.47671 8.02741 8.35426 8.11789 8.26351C8.20838 8.17275 8.33131 8.12102 8.46002 8.11954C8.58982 8.11959 8.71441 8.1702 8.8069 8.26046C8.85251 8.30551 8.88856 8.35913 8.91297 8.41818C8.93738 8.47723 8.94966 8.5405 8.94907 8.60432V13.5593H10.4332V10.4138C10.4307 10.3317 10.4533 10.2508 10.4981 10.1817C10.5429 10.1127 10.6077 10.0587 10.6841 10.0269C10.7605 9.99517 10.8448 9.98712 10.9259 10.0039C11.007 10.0206 11.0811 10.0613 11.1383 10.1207C11.1789 10.158 11.211 10.2035 11.2325 10.254C11.2541 10.3045 11.2646 10.359 11.2634 10.4138V13.5593H17.1546V15.5886C16.8533 15.7352 16.5348 15.8649 16.2448 16.034C8.69885 20.724 3.8028 28.3002 1.64763 36.8911V13.5593ZM59.5644 43.9544C56.5846 60.8035 35.3115 60.1553 32.6275 43.9544C32.4228 40.2283 33.2303 36.1076 34.8168 31.6825C39.838 33.3736 43.2442 36.6487 44.1768 41.7164C44.2167 41.9362 44.3431 42.1312 44.5282 42.2586C44.7132 42.386 44.9417 42.4353 45.1634 42.3957C45.3851 42.3561 45.5818 42.2308 45.7103 42.0474C45.8388 41.864 45.8885 41.6374 45.8486 41.4177C44.8136 35.7242 40.89 31.891 35.2661 30.059C26.4179 27.3701 18.2578 32.776 17.1546 42.1448V56.2375H1.74999V47.4042C2.2504 40.2283 3.85967 33.5371 7.04409 27.9451C9.43329 23.6791 12.8747 20.0833 17.0466 17.494L17.1205 17.4489H17.149L17.2172 17.415L17.3309 17.3587L18.0019 17.043C22.9497 14.7658 28.4302 13.8691 33.8538 14.4491C39.2774 15.0292 44.4388 17.0641 48.7828 20.3351C55.6179 25.6959 60.7415 35.5608 59.5644 43.9544ZM90.2258 56.215H75.0827V41.0738C74.1843 33.5258 66.7578 28.1086 58.3531 29.6926C55.9464 24.8689 52.3879 20.7008 47.9867 17.5504C52.7292 14.8558 56.4709 14.2978 62.7715 14.2358C78.125 14.5853 89.9415 27.7985 90.2258 41.0738V56.215Z" fill="#F2F2F2"/>
</svg>
