<svg width="228" height="60" viewBox="0 0 228 60" fill="none" xmlns="http://www.w3.org/2000/svg">
<path d="M117.966 52.0248V58.6727C116.133 58.8879 114.288 58.9972 112.442 59C104.906 59 102.81 57.307 102.81 52.3634V44.2144H99V39.2032H102.81V34H111.908V39.2257H118V44.2144H111.908V50.6027C111.908 51.833 112.684 52.132 114.566 52.132C115.617 52.1546 116.966 52.1151 117.966 52.0248Z" fill="white"/>
<path d="M140.919 56.0039H140.702C138.3 57.9542 135.229 59 131 59C125.018 59 121 56.6653 121 51.4081V39H130.223V48.4234C130.223 51.0972 131.981 52.1939 135.012 52.1939C137.746 52.1939 140.754 51.1594 140.754 47.4059V39H150V58.4799H140.919V56.0039Z" fill="white"/>
<path d="M170.961 52.0248V58.6727C169.13 58.888 167.288 58.9973 165.444 59C157.91 59 155.815 57.307 155.815 52.3634V44.2144H152V39.2032H155.815V34H164.91V39.2257H171V44.2144H164.91V50.6027C164.91 51.833 165.685 52.132 167.567 52.132C168.601 52.1546 169.966 52.1151 170.961 52.0248Z" fill="white"/>
<path d="M203 49.0059C203 55.969 198.578 60 187.497 60C176.416 60 172 55.969 172 49.0059C172 42.0427 176.422 38 187.497 38C198.572 38 203 42.031 203 49.0059ZM193.422 49.0059C193.422 46.0678 191.777 44.2345 187.497 44.2345C183.217 44.2345 181.578 46.0561 181.578 49.0059C181.578 51.9557 183.223 53.7655 187.497 53.7655C191.771 53.7655 193.422 51.9439 193.422 49.0059Z" fill="white"/>
<path d="M214.407 39.5201V42.2561H214.632C217.148 40.0345 220.339 39 225.448 39C226.301 39.0026 227.153 39.0517 228 39.147V47.5359C226.575 47.2832 225.128 47.1583 223.678 47.1628C219.38 47.1628 214.573 47.9825 214.573 53.251V59H205V39.5201H214.407Z" fill="white"/>
<path d="M45.605 41.1013C45.605 41.5826 45.605 42.2205 45.3654 42.282C44.8083 42.4331 43.9336 38.7624 41.5157 36.0932C39.8545 34.343 37.7272 33.1096 35.3875 32.54C34.9585 33.2898 30.5851 41.2356 34.5016 49.215C35.0866 50.4013 38.6132 57.2168 45.7331 57.9387C51.1873 58.4982 56.1289 55.1408 58.6359 51.4701C64.4689 42.892 58.8699 27.8061 48.814 20.431C38.758 13.0559 26.7299 15.1487 24 15.6859C29.2314 15.9562 34.2233 17.9728 38.1842 21.4158C41.7622 24.6485 44.2113 28.9504 45.1704 33.6871C45.7075 36.1195 45.8542 38.6225 45.605 41.1013Z" fill="#0ABAB5"/>
<path d="M6.28233 26.9086C3.47951 30.997 2.7674 34.8491 1.8787 39.6244C0.821362 45.3639 0.717525 51.2291 1.57108 57H17.1461C16.9498 53.4931 17.2101 49.9762 17.9209 46.5318C19.2938 39.8827 20.4047 34.1842 25.2527 31.6949C29.7645 29.376 35.5069 30.8487 39.1301 33.1621C42.4298 35.3415 44.7759 38.6224 45.7156 42.372C46.5799 36.9304 45.4604 31.3682 42.5482 26.6339C41.5683 25.0843 35.9285 16.5943 25.7654 16.0283C14.8389 15.4293 7.92301 24.5128 6.28233 26.9086Z" fill="#0ABAB5"/>
<path d="M76.1052 57.8707L91.9934 58C92.069 54.4112 91.4924 50.8381 90.2911 47.4514C89.3038 44.6415 86.8071 37.6109 79.5098 33.2611C71.3614 28.3999 62.8839 30.2826 61 30.749C63.8939 30.8727 70.5613 31.5358 73.4269 36.1498C74.4199 37.7514 74.5958 39.252 74.9476 43.1185C75.2994 46.985 75.725 52.026 76.1052 57.8707Z" fill="#0ABAB5"/>
<path d="M17 14.2293V16.2704C16.7068 16.4182 16.3974 16.549 16.1151 16.7195C8.82954 21.5066 4.10098 29.2274 2 38V14.2293H6.14223V2.49463C6.14223 2.36344 6.192 2.23762 6.28057 2.14486C6.36915 2.0521 6.48929 2 6.61456 2C6.73825 2.00124 6.85677 2.05211 6.94571 2.14214C7.03546 2.23544 7.08622 2.3622 7.08687 2.49463V14.2293H8.15093V9.15224C8.15093 9.02105 8.20069 8.89525 8.28927 8.80249C8.37784 8.70972 8.49797 8.65761 8.62324 8.65761C8.68512 8.65743 8.74641 8.67044 8.80334 8.69585C8.86028 8.72126 8.91167 8.75855 8.95441 8.80544C8.99892 8.85039 9.03435 8.90425 9.0586 8.96383C9.08285 9.02341 9.09541 9.08747 9.09555 9.15224V14.2122H10.5233V10.9943C10.5233 10.8827 10.5657 10.7757 10.641 10.6968C10.7163 10.6179 10.8185 10.5736 10.9251 10.5736C10.9777 10.5738 11.0298 10.5849 11.0782 10.6064C11.1267 10.6279 11.1706 10.6592 11.2074 10.6987C11.2455 10.7368 11.2758 10.7827 11.2964 10.8335C11.3169 10.8844 11.3273 10.9391 11.3268 10.9943V14.2122L17 14.2293Z" fill="#0ABAB5"/>
<path d="M48 18.06C50.7109 16.8528 53.5728 16.006 56.5104 15.5418C59.5748 15.0638 69.2986 13.5296 78.4523 19.3607C87.5158 25.1419 90.4955 34.6252 91.2856 39.1334C91.6896 41.8962 91.9196 44.6809 91.9741 47.4716C92.0673 50.9877 91.9089 54.5059 91.5001 58C91.3872 56.0099 90.5858 45.8762 81.8553 38.1551C72.4194 29.8169 61.0534 30.773 59.2362 30.9564C55.4964 26.665 51.751 22.3662 48 18.06Z" fill="#0ABAB5"/>
<path d="M93 41.7594C92.6588 26.4898 78.8531 12.9848 63.4893 12.849C58.133 12.849 55.4208 13.2336 51.395 14.6588C49.7941 15.2203 48.283 16.0088 46.9087 17.0001C38.2887 12.3514 28.1447 11.4578 19.0811 15.1677V13.8727C19.0811 13.4227 18.9014 12.9912 18.5815 12.673C18.2616 12.3548 17.8277 12.176 17.3753 12.176H13.1278V10.683C13.1263 10.1195 12.9006 9.57952 12.5 9.18106C12.0994 8.7826 11.5564 8.55809 10.9899 8.5566H10.7738C10.7067 8.05199 10.4663 7.58597 10.0932 7.23757C9.72013 6.88918 9.23735 6.67984 8.72679 6.64508V2.19995C8.72679 1.61649 8.49376 1.05693 8.07895 0.64436C7.66415 0.23179 7.10155 0 6.51492 0C5.92829 0 5.3657 0.23179 4.95089 0.64436C4.53608 1.05693 4.30303 1.61649 4.30303 2.19995V12.1647H1.67039C1.4455 12.1642 1.22271 12.2079 1.01486 12.2933C0.807002 12.3787 0.618189 12.5041 0.459264 12.6624L0.317112 12.8151L0.248874 12.9169C0.23176 12.9382 0.216538 12.9609 0.203384 12.9848L0.135154 13.1092C0.107104 13.1642 0.0824163 13.2209 0.0612323 13.2788V13.3241C0.0612323 13.3919 0.0214351 13.4598 0.00437689 13.5277V13.6125C-0.00145896 13.6991 -0.00145896 13.786 0.00437689 13.8727V57.159C0.00437689 57.6089 0.184095 58.0405 0.503999 58.3587C0.823902 58.6768 1.25779 58.8556 1.7102 58.8556H17.4037C17.8561 58.8556 18.29 58.6768 18.6099 58.3587C18.9298 58.0405 19.1096 57.6089 19.1096 57.159V43.0205C20.0591 35.4932 25.9328 30.5165 33.5806 31.8794C32.0567 36.1775 30.6921 40.6905 31.3403 44.9773C34.3653 63.5326 58.8552 63.8154 61.9882 44.9773C62.6307 40.8432 61.6641 35.9287 59.8843 31.8568C66.8213 30.7653 73.2921 34.9616 74.2758 41.9234V57.1929C74.2758 57.6429 74.4555 58.0744 74.7754 58.3926C75.0953 58.7108 75.5292 58.8895 75.9816 58.8895H91.2942C91.7466 58.8895 92.1805 58.7108 92.5004 58.3926C92.8203 58.0744 93 57.6429 93 57.1929C92.9943 57.125 93 41.7933 93 41.7594ZM1.67039 13.8727H6.00885V2.19995C6.00885 2.06946 6.06097 1.9443 6.15375 1.85203C6.24652 1.75976 6.37236 1.70794 6.50356 1.70794C6.63311 1.70917 6.75724 1.75977 6.8504 1.84932C6.94439 1.94213 6.99756 2.06822 6.99824 2.19995V13.8727H8.09565V8.8224C8.09565 8.69191 8.14777 8.56677 8.24054 8.4745C8.33331 8.38223 8.45913 8.33039 8.59033 8.33039C8.65515 8.33021 8.71934 8.34315 8.77897 8.36843C8.8386 8.39371 8.89243 8.4308 8.93719 8.47743C8.98382 8.52215 9.02092 8.57573 9.04632 8.63499C9.07172 8.69425 9.08487 8.75798 9.08502 8.8224V13.8557H10.5805V10.6547C10.5805 10.5437 10.6248 10.4373 10.7037 10.3588C10.7826 10.2803 10.8896 10.2362 11.0012 10.2362C11.0563 10.2364 11.1109 10.2475 11.1616 10.2689C11.2124 10.2902 11.2584 10.3214 11.2969 10.3607C11.3369 10.3986 11.3686 10.4442 11.3901 10.4948C11.4116 10.5454 11.4225 10.5998 11.422 10.6547V13.8557H17.3639V15.886C17.0569 16.033 16.7328 16.1631 16.4371 16.3328C8.80641 21.0946 3.85384 28.7746 1.65333 37.5009L1.67039 13.8727ZM60.2653 44.7228C57.2517 61.8247 35.7299 61.1687 33.012 44.7228C32.8073 40.9393 33.6261 36.7544 35.2296 32.2809C40.3072 33.9776 43.7587 37.3199 44.7025 42.4606C44.7433 42.6856 44.8722 42.8853 45.0609 43.0158C45.2497 43.1462 45.4828 43.1967 45.709 43.1562C45.9352 43.1157 46.136 42.9875 46.2671 42.7998C46.3983 42.6121 46.4491 42.3802 46.4084 42.1552C45.3621 36.3754 41.3876 32.4902 35.7015 30.6296C26.7459 27.898 18.4955 33.3837 17.381 42.8961V57.1703H1.77843V48.2178C2.28449 40.9393 3.9107 34.1472 7.1347 28.4692C9.55228 24.1433 13.0324 20.4972 17.2502 17.871C17.2768 17.8593 17.3017 17.8441 17.3241 17.8258H17.3583L17.4208 17.7918L17.5402 17.7353L18.2225 17.4129C23.2236 15.0939 28.7656 14.1745 34.2527 14.7534C39.7398 15.3323 44.9645 17.3878 49.3651 20.6987C56.2737 26.1901 61.4537 36.2058 60.2653 44.7228ZM91.2771 57.1646H75.9645V41.7933C75.0548 34.1302 67.5435 28.6106 59.0371 30.245C56.6038 25.3474 53.0045 21.1151 48.552 17.9163C53.351 15.1847 57.138 14.6192 63.5064 14.557C79.0521 14.9076 90.9928 28.3222 91.2771 41.7933V57.1646Z" fill="#F2F2F2"/>
</svg>
