<svg width="246" height="60" viewBox="0 0 246 60" fill="none" xmlns="http://www.w3.org/2000/svg">
<path d="M145 40L135.683 59H126.95L124.185 52.7249C123.204 50.4877 122.269 47.9285 122.269 47.9285H122.048C122.048 47.9285 121.119 50.4767 120.121 52.7412L117.373 59H108.424L99 40.0218H109.308L111.53 45.2875C112.476 47.5574 113.366 50.1002 113.366 50.1002H113.581C113.581 50.1002 114.517 47.5411 115.486 45.3093L117.82 40.0218H126.287L128.735 45.342C129.744 47.5247 130.674 50.0511 130.674 50.0511H130.895C130.895 50.0511 131.733 47.5302 132.657 45.2438L134.76 40.0218L145 40Z" fill="white"/>
<path d="M176 49.5083C176 56.1525 171.577 60 160.503 60C149.429 60 145 56.1525 145 49.5083C145 42.8642 149.423 39 160.503 39C171.583 39 176 42.8475 176 49.5083ZM166.409 49.5083C166.409 46.6894 164.768 44.9547 160.492 44.9547C156.215 44.9547 154.568 46.6894 154.568 49.5083C154.568 52.3272 156.21 54.0508 160.492 54.0508C164.773 54.0508 166.421 52.3106 166.421 49.5083H166.409Z" fill="white"/>
<path d="M186.993 39.5148V42.2513H187.212C189.615 40.0129 192.674 39 197.558 39C198.374 39.0025 199.189 39.051 200 39.1455V47.5394C198.636 47.2867 197.251 47.1612 195.863 47.1645C191.754 47.1645 187.156 47.9871 187.156 53.2473V59H178V39.5148H186.993Z" fill="white"/>
<path d="M203 32H212V59H203V32Z" fill="white"/>
<path d="M236.681 41.1431V32H246V59.1381H236.869V56.9368H236.652C234.552 58.8819 231.875 60 227.806 60C219.497 60 215 56.2379 215 49.1739C215 42.1098 219.497 38.3477 227.806 38.3477C231.875 38.3477 234.443 39.4426 236.475 41.1664L236.681 41.1431ZM236.955 49.1506C236.955 46.3378 235.043 44.5266 230.677 44.5266C226.311 44.5266 224.639 46.2155 224.639 49.1506C224.639 52.0857 226.351 53.7745 230.677 53.7745C235.003 53.7745 236.955 51.9634 236.955 49.1506Z" fill="white"/>
<path d="M45.17 41.3487C42.6517 36.8222 38.5283 33.4643 33.6568 31.9729C31.7619 36.0956 31.0781 40.6942 31.6888 45.2082C32.0461 47.6379 32.5735 51.2591 35.4547 54.4328C39.2773 58.6411 44.4043 58.955 45.3231 58.9957C47.9027 59.0564 50.4577 58.4701 52.7658 57.2879C55.0738 56.1057 57.065 54.3633 58.5661 52.2124C64.5666 43.2261 58.8157 27.41 48.4822 19.6909C38.1486 11.9718 25.7961 14.1515 23 14.7153C28.3708 14.9983 33.4961 17.1092 37.5645 20.7139C41.2344 24.1102 43.75 28.6189 44.7446 33.583C45.2832 36.1327 45.4267 38.7533 45.17 41.3487Z" fill="#F76E11"/>
<path d="M5.3978 26.4287C2.51201 30.7193 1.80211 34.7643 0.901743 39.7691C-0.182595 45.7907 -0.289746 51.945 0.584313 58H16.5023C16.2999 54.3195 16.5655 50.6284 17.293 47.0134C18.7013 40.0433 19.8325 34.0673 24.796 31.4563C29.4133 29.0282 35.2657 30.5708 38.9768 32.9989C42.3519 35.2825 44.7502 38.7254 45.7064 42.66C46.5949 36.9517 45.4524 31.1153 42.4743 26.1487C41.4701 24.5262 35.7043 15.6192 25.3155 15.0308C14.1475 14.3909 7.10041 23.9206 5.3978 26.4287Z" fill="#F76E11"/>
<path d="M75.1024 58.8673L90.9928 59C91.0716 55.2847 90.4997 51.5851 89.3042 48.0769C88.3135 45.1918 85.8199 37.8809 78.5191 33.3743C70.3628 28.3426 61.8801 30.293 60 30.7777C62.8933 30.9046 69.5692 31.5912 72.4343 36.369C73.4306 38.0309 73.6051 39.5831 73.9541 43.5876C74.3031 47.5922 74.7252 52.8143 75.1024 58.8673Z" fill="#F76E11"/>
<path d="M48 17.2011C50.7098 15.9367 53.5714 15.0508 56.5089 14.5671C59.5745 14.0656 69.2973 12.4633 78.4495 18.5614C87.6017 24.6595 90.4995 34.527 91.2827 39.2418C91.6893 42.1407 91.9209 45.0628 91.9764 47.9912C92.0645 51.6677 91.9057 55.3461 91.5009 59C91.3834 56.9193 90.5834 46.3197 81.8564 38.2504C72.4189 29.5183 61.0514 30.527 59.2388 30.7172L48 17.2011Z" fill="#F76E11"/>
<path d="M17 13.5652V15.6675C16.6642 15.8181 16.3222 15.9513 15.9986 16.1309C7.72449 21.0479 2.36315 28.994 0 38V13.5652H4.69576V1.50705C4.6963 1.40663 4.72811 1.3086 4.78719 1.22527C4.84628 1.14193 4.92999 1.077 5.02785 1.03864C5.1257 1.00028 5.23332 0.990203 5.3372 1.00966C5.44107 1.02911 5.53657 1.07722 5.61171 1.14798C5.66086 1.19533 5.69966 1.25143 5.72586 1.31306C5.75206 1.37468 5.76514 1.44061 5.76437 1.50705V13.5652H6.93678V8.35274C6.93677 8.21857 6.99254 8.08981 7.092 7.99439C7.19146 7.89897 7.32657 7.8446 7.46803 7.84308C7.53866 7.8421 7.60876 7.85497 7.67391 7.88088C7.73905 7.9068 7.79785 7.94519 7.84662 7.99367C7.94757 8.08871 8.00466 8.21784 8.00539 8.35274V13.5652H9.62967V10.264C9.62966 10.1498 9.67707 10.0401 9.76164 9.95885C9.84621 9.87755 9.96114 9.83112 10.0815 9.8296C10.2028 9.83032 10.319 9.87606 10.4052 9.95701C10.4483 9.99692 10.4824 10.0447 10.5055 10.0975C10.5286 10.1502 10.5401 10.2068 10.5395 10.264V13.5652H17Z" fill="#F76E11"/>
<path d="M93 42.4788C92.6618 26.9179 78.8528 13.2051 63.4882 13.0625C58.1337 13.0625 55.4226 13.4504 51.3927 14.905C49.784 15.4758 48.2653 16.2788 46.8836 17.2893C38.2657 12.5549 28.1259 11.6479 19.057 15.4241V14.1007C19.057 13.6468 18.8789 13.2116 18.5618 12.8907C18.2447 12.5697 17.8146 12.3894 17.3662 12.3894H13.122V10.8721C13.122 10.5878 13.0666 10.3062 12.9589 10.0435C12.8512 9.78086 12.6933 9.54227 12.4943 9.34145C12.2954 9.14063 12.0592 8.98151 11.7994 8.8732C11.5396 8.76489 11.2612 8.70952 10.9802 8.71027C10.9089 8.70444 10.8373 8.70444 10.766 8.71027C10.6935 8.19777 10.4509 7.72548 10.078 7.37097C9.70522 7.01646 9.22434 6.80082 8.7144 6.75946V2.23608C8.71505 1.94241 8.6581 1.65151 8.54683 1.38028C8.43556 1.10906 8.27221 0.862875 8.06623 0.656021C7.86259 0.446526 7.61948 0.280535 7.3513 0.167858C7.08312 0.0551798 6.79533 -0.00188935 6.50496 4.77072e-05C5.91846 4.57857e-05 5.3559 0.235438 4.94065 0.654611C4.52541 1.07378 4.29138 1.64252 4.28989 2.23608V12.378H1.67463C1.4487 12.3775 1.22488 12.4221 1.01598 12.5092C0.807077 12.5963 0.617194 12.7243 0.457186 12.8857L0.321911 13.0397L0.248636 13.1424L0.203553 13.2108L0.135912 13.3363C0.108106 13.3938 0.0836466 13.4528 0.0626453 13.5132V13.5588C0.039795 13.626 0.0209696 13.6946 0.00627859 13.7641C0.00352709 13.7926 0.00352709 13.8213 0.00627859 13.8497C-0.00209286 13.937 -0.00209286 14.0248 0.00627859 14.1121V58.1652C0.00627859 58.619 0.184425 59.0543 0.50153 59.3752C0.818634 59.6962 1.24872 59.8764 1.69718 59.8764H17.3887C17.8344 59.8677 18.2595 59.6846 18.5748 59.3655C18.89 59.0465 19.0709 58.6163 19.0796 58.1652V43.7451C20.0265 36.0788 25.9165 31.0192 33.5481 32.4053C32.0262 36.7747 30.6623 41.3722 31.2935 45.7302C34.3202 64.6109 58.8044 64.9018 61.9439 45.7302C62.5808 41.5205 61.6169 36.5009 59.8359 32.3768C66.7742 31.2645 73.2447 35.5311 74.231 42.6157V58.1367C74.231 58.5905 74.4092 59.0258 74.7263 59.3467C75.0434 59.6676 75.4735 59.8479 75.9219 59.8479H91.2358C91.6865 59.8465 92.1187 59.6667 92.44 59.3468C92.7612 59.027 92.9461 58.5927 92.9549 58.1367C92.9944 58.1139 93 42.513 93 42.4788ZM1.69154 14.1007H6.02587V2.22466C6.02637 2.12575 6.05573 2.02921 6.11026 1.94713C6.1648 1.86505 6.24207 1.8011 6.33239 1.76332C6.42271 1.72554 6.52205 1.71562 6.61793 1.73477C6.71382 1.75393 6.80196 1.80132 6.87132 1.87101C6.91669 1.91764 6.9525 1.9729 6.97668 2.03359C7.00086 2.09429 7.01294 2.15922 7.01223 2.22466V14.1007H8.09441V8.96696C8.0944 8.83481 8.14588 8.70799 8.23768 8.61402C8.32948 8.52005 8.4542 8.46649 8.58477 8.46499C8.64997 8.46403 8.71466 8.47671 8.77479 8.50223C8.83492 8.52775 8.8892 8.56556 8.93422 8.61331C9.02739 8.70692 9.08009 8.83409 9.08076 8.96696V14.1007H10.58V10.8493C10.58 10.7368 10.6238 10.6289 10.7018 10.5488C10.7799 10.4687 10.886 10.423 10.9971 10.4215C11.1091 10.4222 11.2163 10.4673 11.2958 10.547C11.3356 10.5863 11.3671 10.6334 11.3884 10.6853C11.4097 10.7373 11.4204 10.7931 11.4198 10.8493V14.1007H17.3831V16.1713C17.0731 16.3196 16.7574 16.4508 16.4587 16.6276C8.82149 21.4704 3.8728 29.2965 1.69154 38.1665V14.1007ZM60.3093 45.4735C57.2939 62.8768 35.7688 62.2037 33.0521 45.4735C32.8491 41.6232 33.6664 37.3679 35.2728 32.7989C40.3455 34.5101 43.8005 37.9326 44.7418 43.1633C44.7979 43.3751 44.9308 43.5577 45.1139 43.6748C45.2971 43.792 45.5171 43.8351 45.7302 43.7955C45.9433 43.756 46.1339 43.6367 46.264 43.4614C46.3942 43.2862 46.4544 43.0677 46.4327 42.8496C45.39 36.9686 41.4164 33.0156 35.7237 31.1218C26.7732 28.3382 18.5216 33.9283 17.4056 43.6025V58.131H1.77045V49.0043C2.28336 41.589 3.90662 34.6812 7.13059 28.9029C9.54798 24.4983 13.0287 20.7854 17.2478 18.1107L17.3211 18.0651H17.3549L17.4225 18.0309L17.5353 17.9738L18.2172 17.643C23.2254 15.2965 28.7706 14.3753 34.2572 14.9783C39.7437 15.5813 44.9642 17.6857 49.3579 21.0654C56.2737 26.6384 61.4535 36.826 60.2642 45.4963L60.3093 45.4735ZM91.3091 58.131H75.967V42.513C75.0539 34.7212 67.5407 29.1026 59.058 30.7625C56.6224 25.7799 53.0242 21.4727 48.5745 18.2134C53.371 15.4355 57.1586 14.8593 63.5277 14.7909C79.0727 15.1502 91.016 28.8003 91.3035 42.5016L91.3091 58.131Z" fill="#F2F2F2"/>
</svg>
